# 3ds Max Wavefront OBJ Exporter v0.97b - (c)2007 guruware
# File Created: 20.03.2018 22:22:18

mtllib Desert.mtl

#
# object Box005
#

v  -250.8815 0.0000 -261.3298
v  -250.8815 0.0000 238.6702
v  249.1185 0.0000 -261.3298
v  249.1185 0.0000 238.6702
v  249.1185 -15.4718 238.6702
v  -250.8815 -15.4718 238.6702
v  249.1185 -15.4718 -261.3298
v  -250.8815 -15.4718 -261.3298
# 8 vertices

vn 0.0000 1.0000 -0.0000
vn 0.0000 -1.0000 -0.0000
vn 0.0000 0.0000 1.0000
vn 1.0000 0.0000 -0.0000
vn 0.0000 0.0000 -1.0000
vn -1.0000 0.0000 -0.0000
# 6 vertex normals

vt 0.0000 1.0000 0.0000
vt 0.0000 0.0000 0.0000
vt 1.0000 1.0000 0.0000
vt 1.0000 0.0000 0.0000
# 4 texture coords

g Box005
usemtl Material__32
s 2
f 1/1/1 2/2/1 3/3/1 
f 4/4/1 3/3/1 2/2/1 
s 4
f 5/2/2 6/4/2 7/1/2 
f 8/3/2 7/1/2 6/4/2 
s 8
f 4/4/3 2/2/3 5/3/3 
f 6/1/3 5/3/3 2/2/3 
s 16
f 3/4/4 4/2/4 7/3/4 
f 5/1/4 7/3/4 4/2/4 
s 32
f 1/4/5 3/2/5 8/3/5 
f 7/1/5 8/3/5 3/2/5 
s 64
f 2/4/6 1/2/6 6/3/6 
f 8/1/6 6/3/6 1/2/6 
# 12 faces

#
# object GeoSphere002
#

v  -115.4459 40.4281 -227.1123
v  -75.3212 28.5870 -227.1123
v  -115.4459 28.5870 -243.9172
v  -58.7011 0.0000 -227.1123
v  -75.3212 0.0000 -243.9172
v  -115.4459 0.0000 -250.8780
v  -155.5706 28.5870 -227.1123
v  -155.5706 0.0000 -243.9172
v  -172.1908 0.0000 -227.1123
v  -115.4459 28.5870 -210.3075
v  -155.5706 0.0000 -210.3075
v  -115.4459 0.0000 -203.3467
v  -75.3212 0.0000 -210.3075
v  -115.4459 -40.4281 -227.1123
v  -115.4459 -28.5870 -243.9172
v  -75.3212 -28.5870 -227.1123
v  -155.5706 -28.5870 -227.1123
v  -115.4459 -28.5870 -210.3075
# 18 vertices

vn 0.3574 0.8629 -0.3574
vn 0.8629 0.3574 -0.3574
vn 0.5774 0.5774 -0.5774
vn 0.3574 0.3574 -0.8629
vn -0.3574 0.8629 -0.3574
vn -0.3574 0.3574 -0.8629
vn -0.5774 0.5774 -0.5774
vn -0.8629 0.3574 -0.3574
vn -0.3574 0.8629 0.3574
vn -0.8629 0.3574 0.3574
vn -0.5774 0.5774 0.5774
vn -0.3574 0.3574 0.8629
vn 0.3574 0.8629 0.3574
vn 0.3574 0.3574 0.8629
vn 0.5774 0.5774 0.5774
vn 0.8629 0.3574 0.3574
vn 0.3574 -0.8629 -0.3574
vn 0.3574 -0.3574 -0.8629
vn 0.5774 -0.5774 -0.5774
vn 0.8629 -0.3574 -0.3574
vn -0.3574 -0.8629 -0.3574
vn -0.8629 -0.3574 -0.3574
vn -0.5774 -0.5774 -0.5774
vn -0.3574 -0.3574 -0.8629
vn -0.3574 -0.8629 0.3574
vn -0.3574 -0.3574 0.8629
vn -0.5774 -0.5774 0.5774
vn -0.8629 -0.3574 0.3574
vn 0.3574 -0.8629 0.3574
vn 0.8629 -0.3574 0.3574
vn 0.5774 -0.5774 0.5774
vn 0.3574 -0.3574 0.8629
# 32 vertex normals

vt 0.6250 1.0000 0.0000
vt 0.5000 0.7500 0.0000
vt 0.7500 0.7500 0.0000
vt 0.5000 0.5000 0.0000
vt 0.6250 0.5000 0.0000
vt 0.7500 0.5000 0.0000
vt 0.8750 1.0000 0.0000
vt 1.0000 0.7500 0.0000
vt 0.8750 0.5000 0.0000
vt 1.0000 0.5000 0.0000
vt 0.1250 1.0000 0.0000
vt 0.0000 0.7500 0.0000
vt 0.2500 0.7500 0.0000
vt 0.0000 0.5000 0.0000
vt 0.1250 0.5000 0.0000
vt 0.2500 0.5000 0.0000
vt 0.3750 1.0000 0.0000
vt 0.3750 0.5000 0.0000
vt 0.6250 0.0000 0.0000
vt 0.7500 0.2500 0.0000
vt 0.5000 0.2500 0.0000
vt 0.8750 0.0000 0.0000
vt 1.0000 0.2500 0.0000
vt 0.1250 0.0000 0.0000
vt 0.2500 0.2500 0.0000
vt 0.0000 0.2500 0.0000
vt 0.3750 0.0000 0.0000
# 27 texture coords

g GeoSphere002
usemtl 07___Default
s off
f 9/5/7 10/6/7 11/7/7 
f 10/6/8 12/8/8 13/9/8 
f 10/6/9 13/9/9 11/7/9 
f 11/7/10 13/9/10 14/10/10 
f 9/11/11 11/7/11 15/12/11 
f 11/7/12 14/10/12 16/13/12 
f 11/7/13 16/13/13 15/12/13 
f 15/12/14 16/13/14 17/14/14 
f 9/15/15 15/16/15 18/17/15 
f 15/16/16 17/18/16 19/19/16 
f 15/16/17 19/19/17 18/17/17 
f 18/17/18 19/19/18 20/20/18 
f 9/21/19 18/17/19 10/6/19 
f 18/17/20 20/20/20 21/22/20 
f 18/17/21 21/22/21 10/6/21 
f 10/6/22 21/22/22 12/8/22 
f 22/23/23 23/24/23 24/25/23 
f 23/24/24 14/10/24 13/9/24 
f 23/24/25 13/9/25 24/25/25 
f 24/25/26 13/9/26 12/8/26 
f 22/26/27 25/27/27 23/24/27 
f 25/27/28 17/14/28 16/13/28 
f 25/27/29 16/13/29 23/24/29 
f 23/24/30 16/13/30 14/10/30 
f 22/28/31 26/29/31 25/30/31 
f 26/29/32 20/20/32 19/19/32 
f 26/29/33 19/19/33 25/30/33 
f 25/30/34 19/19/34 17/18/34 
f 22/31/35 24/25/35 26/29/35 
f 24/25/36 12/8/36 21/22/36 
f 24/25/37 21/22/37 26/29/37 
f 26/29/38 21/22/38 20/20/38 
# 32 faces

#
# object GeoSphere003
#

v  -53.0928 97.1475 -196.4954
v  -27.2915 67.7197 -196.4954
v  -53.0928 67.7197 -219.2962
v  -16.6043 -3.3254 -196.4954
v  -27.2915 -3.3254 -219.2962
v  -53.0928 -3.3254 -228.7406
v  -78.8941 67.7197 -196.4954
v  -78.8941 -3.3254 -219.2962
v  -89.5813 -3.3254 -196.4954
v  -53.0928 67.7197 -173.6945
v  -78.8941 -3.3254 -173.6945
v  -53.0928 -3.3254 -164.2501
v  -27.2915 -3.3254 -173.6945
v  -53.0928 -103.7984 -196.4954
v  -53.0928 -74.3705 -219.2962
v  -27.2915 -74.3705 -196.4954
v  -78.8941 -74.3705 -196.4954
v  -53.0928 -74.3705 -173.6945
# 18 vertices

vn 0.3574 0.8629 -0.3574
vn 0.8629 0.3574 -0.3574
vn 0.5774 0.5774 -0.5774
vn 0.3574 0.3574 -0.8629
vn -0.3574 0.8629 -0.3574
vn -0.3574 0.3574 -0.8629
vn -0.5774 0.5774 -0.5774
vn -0.8629 0.3574 -0.3574
vn -0.3574 0.8629 0.3574
vn -0.8629 0.3574 0.3574
vn -0.5774 0.5774 0.5774
vn -0.3574 0.3574 0.8629
vn 0.3574 0.8629 0.3574
vn 0.3574 0.3574 0.8629
vn 0.5774 0.5774 0.5774
vn 0.8629 0.3574 0.3574
vn 0.3574 -0.8629 -0.3574
vn 0.3574 -0.3574 -0.8629
vn 0.5774 -0.5774 -0.5774
vn 0.8629 -0.3574 -0.3574
vn -0.3574 -0.8629 -0.3574
vn -0.8629 -0.3574 -0.3574
vn -0.5774 -0.5774 -0.5774
vn -0.3574 -0.3574 -0.8629
vn -0.3574 -0.8629 0.3574
vn -0.3574 -0.3574 0.8629
vn -0.5774 -0.5774 0.5774
vn -0.8629 -0.3574 0.3574
vn 0.3574 -0.8629 0.3574
vn 0.8629 -0.3574 0.3574
vn 0.5774 -0.5774 0.5774
vn 0.3574 -0.3574 0.8629
# 32 vertex normals

vt 0.6250 1.0000 0.0000
vt 0.5000 0.7500 0.0000
vt 0.7500 0.7500 0.0000
vt 0.5000 0.5000 0.0000
vt 0.6250 0.5000 0.0000
vt 0.7500 0.5000 0.0000
vt 0.8750 1.0000 0.0000
vt 1.0000 0.7500 0.0000
vt 0.8750 0.5000 0.0000
vt 1.0000 0.5000 0.0000
vt 0.1250 1.0000 0.0000
vt 0.0000 0.7500 0.0000
vt 0.2500 0.7500 0.0000
vt 0.0000 0.5000 0.0000
vt 0.1250 0.5000 0.0000
vt 0.2500 0.5000 0.0000
vt 0.3750 1.0000 0.0000
vt 0.3750 0.5000 0.0000
vt 0.6250 0.0000 0.0000
vt 0.7500 0.2500 0.0000
vt 0.5000 0.2500 0.0000
vt 0.8750 0.0000 0.0000
vt 1.0000 0.2500 0.0000
vt 0.1250 0.0000 0.0000
vt 0.2500 0.2500 0.0000
vt 0.0000 0.2500 0.0000
vt 0.3750 0.0000 0.0000
# 27 texture coords

g GeoSphere003
usemtl 07___Default
s off
f 27/32/39 28/33/39 29/34/39 
f 28/33/40 30/35/40 31/36/40 
f 28/33/41 31/36/41 29/34/41 
f 29/34/42 31/36/42 32/37/42 
f 27/38/43 29/34/43 33/39/43 
f 29/34/44 32/37/44 34/40/44 
f 29/34/45 34/40/45 33/39/45 
f 33/39/46 34/40/46 35/41/46 
f 27/42/47 33/43/47 36/44/47 
f 33/43/48 35/45/48 37/46/48 
f 33/43/49 37/46/49 36/44/49 
f 36/44/50 37/46/50 38/47/50 
f 27/48/51 36/44/51 28/33/51 
f 36/44/52 38/47/52 39/49/52 
f 36/44/53 39/49/53 28/33/53 
f 28/33/54 39/49/54 30/35/54 
f 40/50/55 41/51/55 42/52/55 
f 41/51/56 32/37/56 31/36/56 
f 41/51/57 31/36/57 42/52/57 
f 42/52/58 31/36/58 30/35/58 
f 40/53/59 43/54/59 41/51/59 
f 43/54/60 35/41/60 34/40/60 
f 43/54/61 34/40/61 41/51/61 
f 41/51/62 34/40/62 32/37/62 
f 40/55/63 44/56/63 43/57/63 
f 44/56/64 38/47/64 37/46/64 
f 44/56/65 37/46/65 43/57/65 
f 43/57/66 37/46/66 35/45/66 
f 40/58/67 42/52/67 44/56/67 
f 42/52/68 30/35/68 39/49/68 
f 42/52/69 39/49/69 44/56/69 
f 44/56/70 39/49/70 38/47/70 
# 32 faces

#
# object GeoSphere004
#

v  197.1986 47.0677 157.1003
v  177.6047 32.3079 168.1252
v  204.1603 32.3079 169.4729
v  169.4887 -3.3254 172.6919
v  184.5664 -3.3254 180.4978
v  207.0439 -3.3254 174.5978
v  216.7925 32.3079 146.0755
v  223.7542 -3.3254 158.4480
v  224.9085 -3.3254 141.5088
v  190.2369 32.3079 144.7278
v  209.8308 -3.3254 133.7029
v  187.3533 -3.3254 139.6029
v  170.6431 -3.3254 155.7527
v  197.1986 -53.7186 157.1003
v  204.1603 -38.9588 169.4729
v  177.6047 -38.9588 168.1252
v  216.7925 -38.9588 146.0755
v  190.2369 -38.9588 144.7278
# 18 vertices

vn -0.1362 0.8629 0.4867
vn -0.5767 0.3574 0.7346
vn -0.2201 0.5774 0.7863
vn 0.1116 0.3574 0.9273
vn 0.4867 0.8629 0.1362
vn 0.7346 0.3574 0.5767
vn 0.7863 0.5774 0.2201
vn 0.9273 0.3574 -0.1116
vn 0.1362 0.8629 -0.4867
vn 0.5767 0.3574 -0.7346
vn 0.2201 0.5774 -0.7863
vn -0.1116 0.3574 -0.9273
vn -0.4867 0.8629 -0.1362
vn -0.7346 0.3574 -0.5767
vn -0.7863 0.5774 -0.2201
vn -0.9273 0.3574 0.1116
vn -0.1362 -0.8629 0.4867
vn 0.1116 -0.3574 0.9273
vn -0.2201 -0.5774 0.7863
vn -0.5767 -0.3574 0.7346
vn 0.4867 -0.8629 0.1362
vn 0.9273 -0.3574 -0.1116
vn 0.7863 -0.5774 0.2201
vn 0.7346 -0.3574 0.5767
vn 0.1362 -0.8629 -0.4867
vn -0.1116 -0.3574 -0.9273
vn 0.2201 -0.5774 -0.7863
vn 0.5767 -0.3574 -0.7346
vn -0.4867 -0.8629 -0.1362
vn -0.9273 -0.3574 0.1116
vn -0.7863 -0.5774 -0.2201
vn -0.7346 -0.3574 -0.5767
# 32 vertex normals

vt 0.6250 1.0000 0.0000
vt 0.5000 0.7500 0.0000
vt 0.7500 0.7500 0.0000
vt 0.5000 0.5000 0.0000
vt 0.6250 0.5000 0.0000
vt 0.7500 0.5000 0.0000
vt 0.8750 1.0000 0.0000
vt 1.0000 0.7500 0.0000
vt 0.8750 0.5000 0.0000
vt 1.0000 0.5000 0.0000
vt 0.1250 1.0000 0.0000
vt 0.0000 0.7500 0.0000
vt 0.2500 0.7500 0.0000
vt 0.0000 0.5000 0.0000
vt 0.1250 0.5000 0.0000
vt 0.2500 0.5000 0.0000
vt 0.3750 1.0000 0.0000
vt 0.3750 0.5000 0.0000
vt 0.6250 0.0000 0.0000
vt 0.7500 0.2500 0.0000
vt 0.5000 0.2500 0.0000
vt 0.8750 0.0000 0.0000
vt 1.0000 0.2500 0.0000
vt 0.1250 0.0000 0.0000
vt 0.2500 0.2500 0.0000
vt 0.0000 0.2500 0.0000
vt 0.3750 0.0000 0.0000
# 27 texture coords

g GeoSphere004
usemtl 07___Default
s off
f 45/59/71 46/60/71 47/61/71 
f 46/60/72 48/62/72 49/63/72 
f 46/60/73 49/63/73 47/61/73 
f 47/61/74 49/63/74 50/64/74 
f 45/65/75 47/61/75 51/66/75 
f 47/61/76 50/64/76 52/67/76 
f 47/61/77 52/67/77 51/66/77 
f 51/66/78 52/67/78 53/68/78 
f 45/69/79 51/70/79 54/71/79 
f 51/70/80 53/72/80 55/73/80 
f 51/70/81 55/73/81 54/71/81 
f 54/71/82 55/73/82 56/74/82 
f 45/75/83 54/71/83 46/60/83 
f 54/71/84 56/74/84 57/76/84 
f 54/71/85 57/76/85 46/60/85 
f 46/60/86 57/76/86 48/62/86 
f 58/77/87 59/78/87 60/79/87 
f 59/78/88 50/64/88 49/63/88 
f 59/78/89 49/63/89 60/79/89 
f 60/79/90 49/63/90 48/62/90 
f 58/80/91 61/81/91 59/78/91 
f 61/81/92 53/68/92 52/67/92 
f 61/81/93 52/67/93 59/78/93 
f 59/78/94 52/67/94 50/64/94 
f 58/82/95 62/83/95 61/84/95 
f 62/83/96 56/74/96 55/73/96 
f 62/83/97 55/73/97 61/84/97 
f 61/84/98 55/73/98 53/72/98 
f 58/85/99 60/79/99 62/83/99 
f 60/79/100 48/62/100 57/76/100 
f 60/79/101 57/76/101 62/83/101 
f 62/83/102 57/76/102 56/74/102 
# 32 faces

#
# object GeoSphere005
#

v  214.2090 40.4281 188.9988
v  239.9803 28.5870 188.9988
v  214.2090 28.5870 174.1238
v  250.6552 0.0000 188.9988
v  239.9803 0.0000 174.1238
v  214.2090 0.0000 167.9623
v  188.4376 28.5870 188.9988
v  188.4376 0.0000 174.1238
v  177.7628 0.0000 188.9988
v  214.2090 28.5870 203.8738
v  188.4376 0.0000 203.8738
v  214.2090 0.0000 210.0352
v  239.9803 0.0000 203.8738
v  214.2090 -40.4281 188.9988
v  214.2090 -28.5870 174.1238
v  239.9803 -28.5870 188.9988
v  188.4376 -28.5870 188.9988
v  214.2090 -28.5870 203.8738
# 18 vertices

vn 0.3574 0.8629 -0.3574
vn 0.8629 0.3574 -0.3574
vn 0.5774 0.5774 -0.5774
vn 0.3574 0.3574 -0.8629
vn -0.3574 0.8629 -0.3574
vn -0.3574 0.3574 -0.8629
vn -0.5774 0.5774 -0.5774
vn -0.8629 0.3574 -0.3574
vn -0.3574 0.8629 0.3574
vn -0.8629 0.3574 0.3574
vn -0.5774 0.5774 0.5774
vn -0.3574 0.3574 0.8629
vn 0.3574 0.8629 0.3574
vn 0.3574 0.3574 0.8629
vn 0.5774 0.5774 0.5774
vn 0.8629 0.3574 0.3574
vn 0.3574 -0.8629 -0.3574
vn 0.3574 -0.3574 -0.8629
vn 0.5774 -0.5774 -0.5774
vn 0.8629 -0.3574 -0.3574
vn -0.3574 -0.8629 -0.3574
vn -0.8629 -0.3574 -0.3574
vn -0.5774 -0.5774 -0.5774
vn -0.3574 -0.3574 -0.8629
vn -0.3574 -0.8629 0.3574
vn -0.3574 -0.3574 0.8629
vn -0.5774 -0.5774 0.5774
vn -0.8629 -0.3574 0.3574
vn 0.3574 -0.8629 0.3574
vn 0.8629 -0.3574 0.3574
vn 0.5774 -0.5774 0.5774
vn 0.3574 -0.3574 0.8629
# 32 vertex normals

vt 0.6250 1.0000 0.0000
vt 0.5000 0.7500 0.0000
vt 0.7500 0.7500 0.0000
vt 0.5000 0.5000 0.0000
vt 0.6250 0.5000 0.0000
vt 0.7500 0.5000 0.0000
vt 0.8750 1.0000 0.0000
vt 1.0000 0.7500 0.0000
vt 0.8750 0.5000 0.0000
vt 1.0000 0.5000 0.0000
vt 0.1250 1.0000 0.0000
vt 0.0000 0.7500 0.0000
vt 0.2500 0.7500 0.0000
vt 0.0000 0.5000 0.0000
vt 0.1250 0.5000 0.0000
vt 0.2500 0.5000 0.0000
vt 0.3750 1.0000 0.0000
vt 0.3750 0.5000 0.0000
vt 0.6250 0.0000 0.0000
vt 0.7500 0.2500 0.0000
vt 0.5000 0.2500 0.0000
vt 0.8750 0.0000 0.0000
vt 1.0000 0.2500 0.0000
vt 0.1250 0.0000 0.0000
vt 0.2500 0.2500 0.0000
vt 0.0000 0.2500 0.0000
vt 0.3750 0.0000 0.0000
# 27 texture coords

g GeoSphere005
usemtl 07___Default
s off
f 63/86/103 64/87/103 65/88/103 
f 64/87/104 66/89/104 67/90/104 
f 64/87/105 67/90/105 65/88/105 
f 65/88/106 67/90/106 68/91/106 
f 63/92/107 65/88/107 69/93/107 
f 65/88/108 68/91/108 70/94/108 
f 65/88/109 70/94/109 69/93/109 
f 69/93/110 70/94/110 71/95/110 
f 63/96/111 69/97/111 72/98/111 
f 69/97/112 71/99/112 73/100/112 
f 69/97/113 73/100/113 72/98/113 
f 72/98/114 73/100/114 74/101/114 
f 63/102/115 72/98/115 64/87/115 
f 72/98/116 74/101/116 75/103/116 
f 72/98/117 75/103/117 64/87/117 
f 64/87/118 75/103/118 66/89/118 
f 76/104/119 77/105/119 78/106/119 
f 77/105/120 68/91/120 67/90/120 
f 77/105/121 67/90/121 78/106/121 
f 78/106/122 67/90/122 66/89/122 
f 76/107/123 79/108/123 77/105/123 
f 79/108/124 71/95/124 70/94/124 
f 79/108/125 70/94/125 77/105/125 
f 77/105/126 70/94/126 68/91/126 
f 76/109/127 80/110/127 79/111/127 
f 80/110/128 74/101/128 73/100/128 
f 80/110/129 73/100/129 79/111/129 
f 79/111/130 73/100/130 71/99/130 
f 76/112/131 78/106/131 80/110/131 
f 78/106/132 66/89/132 75/103/132 
f 78/106/133 75/103/133 80/110/133 
f 80/110/134 75/103/134 74/101/134 
# 32 faces

#
# object GeoSphere006
#

v  21.6862 29.0171 -30.9077
v  -7.8192 19.5442 -36.0735
v  17.4597 19.5442 -6.7672
v  -20.0408 -3.3254 -38.2132
v  -12.0457 -3.3254 -11.9329
v  15.7090 -3.3254 3.2322
v  51.1915 19.5442 -25.7420
v  46.9650 -3.3254 -1.6014
v  63.4131 -3.3254 -23.6022
v  25.9126 19.5442 -55.0483
v  55.4180 -3.3254 -49.8825
v  27.6633 -3.3254 -65.0476
v  -3.5927 -3.3254 -60.2140
v  21.6862 -35.6679 -30.9077
v  17.4597 -26.1950 -6.7672
v  -7.8192 -26.1950 -36.0735
v  51.1915 -26.1950 -25.7420
v  25.9126 -26.1950 -55.0483
# 18 vertices

vn -0.4137 0.8629 0.2904
vn -0.9116 0.3574 0.2032
vn -0.6683 0.5774 0.4691
vn -0.5009 0.3574 0.7883
vn 0.2904 0.8629 0.4137
vn 0.2032 0.3574 0.9116
vn 0.4691 0.5774 0.6683
vn 0.7883 0.3574 0.5009
vn 0.4137 0.8629 -0.2904
vn 0.9116 0.3574 -0.2032
vn 0.6683 0.5774 -0.4691
vn 0.5009 0.3574 -0.7883
vn -0.2904 0.8629 -0.4137
vn -0.2032 0.3574 -0.9116
vn -0.4691 0.5774 -0.6683
vn -0.7883 0.3574 -0.5009
vn -0.4137 -0.8629 0.2904
vn -0.5009 -0.3574 0.7883
vn -0.6683 -0.5774 0.4691
vn -0.9116 -0.3574 0.2032
vn 0.2904 -0.8629 0.4137
vn 0.7883 -0.3574 0.5009
vn 0.4691 -0.5774 0.6683
vn 0.2032 -0.3574 0.9116
vn 0.4137 -0.8629 -0.2904
vn 0.5009 -0.3574 -0.7883
vn 0.6683 -0.5774 -0.4691
vn 0.9116 -0.3574 -0.2032
vn -0.2904 -0.8629 -0.4137
vn -0.7883 -0.3574 -0.5009
vn -0.4691 -0.5774 -0.6683
vn -0.2032 -0.3574 -0.9116
# 32 vertex normals

vt 0.6250 1.0000 0.0000
vt 0.5000 0.7500 0.0000
vt 0.7500 0.7500 0.0000
vt 0.5000 0.5000 0.0000
vt 0.6250 0.5000 0.0000
vt 0.7500 0.5000 0.0000
vt 0.8750 1.0000 0.0000
vt 1.0000 0.7500 0.0000
vt 0.8750 0.5000 0.0000
vt 1.0000 0.5000 0.0000
vt 0.1250 1.0000 0.0000
vt 0.0000 0.7500 0.0000
vt 0.2500 0.7500 0.0000
vt 0.0000 0.5000 0.0000
vt 0.1250 0.5000 0.0000
vt 0.2500 0.5000 0.0000
vt 0.3750 1.0000 0.0000
vt 0.3750 0.5000 0.0000
vt 0.6250 0.0000 0.0000
vt 0.7500 0.2500 0.0000
vt 0.5000 0.2500 0.0000
vt 0.8750 0.0000 0.0000
vt 1.0000 0.2500 0.0000
vt 0.1250 0.0000 0.0000
vt 0.2500 0.2500 0.0000
vt 0.0000 0.2500 0.0000
vt 0.3750 0.0000 0.0000
# 27 texture coords

g GeoSphere006
usemtl 07___Default
s off
f 81/113/135 82/114/135 83/115/135 
f 82/114/136 84/116/136 85/117/136 
f 82/114/137 85/117/137 83/115/137 
f 83/115/138 85/117/138 86/118/138 
f 81/119/139 83/115/139 87/120/139 
f 83/115/140 86/118/140 88/121/140 
f 83/115/141 88/121/141 87/120/141 
f 87/120/142 88/121/142 89/122/142 
f 81/123/143 87/124/143 90/125/143 
f 87/124/144 89/126/144 91/127/144 
f 87/124/145 91/127/145 90/125/145 
f 90/125/146 91/127/146 92/128/146 
f 81/129/147 90/125/147 82/114/147 
f 90/125/148 92/128/148 93/130/148 
f 90/125/149 93/130/149 82/114/149 
f 82/114/150 93/130/150 84/116/150 
f 94/131/151 95/132/151 96/133/151 
f 95/132/152 86/118/152 85/117/152 
f 95/132/153 85/117/153 96/133/153 
f 96/133/154 85/117/154 84/116/154 
f 94/134/155 97/135/155 95/132/155 
f 97/135/156 89/122/156 88/121/156 
f 97/135/157 88/121/157 95/132/157 
f 95/132/158 88/121/158 86/118/158 
f 94/136/159 98/137/159 97/138/159 
f 98/137/160 92/128/160 91/127/160 
f 98/137/161 91/127/161 97/138/161 
f 97/138/162 91/127/162 89/126/162 
f 94/139/163 96/133/163 98/137/163 
f 96/133/164 84/116/164 93/130/164 
f 96/133/165 93/130/165 98/137/165 
f 98/137/166 93/130/166 92/128/166 
# 32 faces

